<svg width="1024" height="1024" viewBox="0 0 1024 1024" fill="none" xmlns="http://www.w3.org/2000/svg">
<defs>
<linearGradient id="bearGradient" x1="0" y1="0" x2="1024" y2="1024" gradientUnits="userSpaceOnUse">
<stop offset="0%" stop-color="#5B63B7"/>
<stop offset="50%" stop-color="#7B82D1"/>
<stop offset="100%" stop-color="#C9A0DC"/>
</linearGradient>
</defs>
<path d="M601.142 283.9L605.289 284.359L610.817 286.654L615.424 288.949L618.648 290.326L626.019 293.998L632.469 297.67L633.851 298.129V299.047L636.154 299.965L639.84 301.801L648.132 306.85L651.818 309.604L655.503 311.899V312.817L657.807 313.735L665.178 319.242L671.166 324.291L680.841 332.553V333.471L682.684 334.389L691.897 343.569L695.122 347.241L700.65 353.207L704.796 358.256L709.864 364.223L713.089 368.813L715.392 371.567L716.774 373.862L721.381 380.747L725.066 386.713L726.909 389.467L729.673 394.516L734.28 403.237L738.887 412.417L740.269 415.629L742.573 421.137L746.719 431.694L750.865 444.546L751.786 447.759L755.472 462.446L758.236 478.97L760.079 493.657L761 507.427V525.786L760.539 534.966L759.157 544.146L757.314 556.997L755.472 564.341L754.55 571.226L753.168 575.357L751.786 582.7L749.943 587.749L745.797 600.142L742.573 608.404L739.348 615.747L737.505 620.337L728.291 637.779L722.763 646.959L718.156 654.302L713.089 661.646L709.403 667.154L708.943 667.613V670.367L713.549 684.595L715.392 689.644L718.156 699.742L720.92 707.545L722.302 711.217L725.988 721.314L729.213 730.494L731.516 736.92V741.51L729.673 743.805L726.449 745.641L722.302 745.182L714.471 742.887L708.021 740.592L699.729 737.838L695.122 736.002L678.998 730.494L667.942 726.822L664.256 725.445L653.2 721.773L652.739 721.314H650.436L646.75 724.068L632.469 732.789L626.941 735.543L620.03 739.215L610.817 743.346L606.671 745.182L598.839 748.394L590.547 751.148L587.322 752.525L581.333 753.902L573.962 756.197L570.737 757.115L565.209 758.033H554.613L548.624 756.197L542.175 752.984L538.95 750.23L534.804 745.182L530.197 736.461L527.894 730.494L524.669 717.642L523.287 712.594L522.365 705.709L521.905 699.742V685.972L522.826 673.58L525.59 662.105L527.433 655.22L532.5 643.287L533.422 642.369L534.804 639.156L538.95 631.812L541.714 627.681L545.4 622.632L552.31 615.288L558.759 608.863L563.827 604.732L568.894 601.06L575.805 596.47L580.872 593.257L593.771 586.831L599.3 584.536L602.985 583.159L615.884 579.029L620.03 577.652L626.019 575.357L635.694 571.685L642.604 568.472L646.75 566.636L654.582 562.046L659.649 558.374L664.256 555.161L666.56 552.866L669.324 550.571L671.627 548.276L677.155 542.31L683.144 534.048L685.908 529.917L691.437 518.901L693.279 514.312L697.886 501.46L702.032 484.936L702.493 478.97V471.626L700.65 465.2L697.886 461.069L694.201 457.856L687.29 453.266L682.223 450.512V449.594L677.616 448.218L669.784 444.087L665.638 442.71L658.728 439.497L652.278 437.202L633.851 429.858L631.087 428.94V428.022L628.783 427.563L624.637 424.809L622.334 422.055L620.491 418.842L617.727 413.794L613.12 405.532L610.356 401.401L606.671 398.188L602.985 394.057L599.76 392.221L598.839 387.631L598.378 384.877L594.693 381.665L592.389 379.37L591.007 376.616V369.731L591.929 367.436L592.389 364.223H593.311V361.01L593.771 360.092H594.693L596.536 356.42L596.075 353.666H596.996L597.457 349.535L600.221 345.864L600.682 343.11L601.603 340.356L604.367 339.897L606.21 336.225L608.513 335.766L606.671 333.471L607.592 330.717L608.974 328.881H609.895L610.356 325.668L609.895 324.75L610.356 323.373L613.12 321.537L613.581 320.619H614.502L615.424 318.783L616.345 316.029L617.727 315.57V314.194L620.491 311.899L627.401 310.522H632.469L634.772 310.063L637.997 311.44H640.301L638.458 306.391L636.154 304.555L634.312 301.801V300.424L631.087 299.965V299.047L629.705 298.588V297.211L626.941 296.752V295.834L624.177 294.916L616.806 291.244L612.659 289.408L601.603 284.818L601.142 283.9Z" fill="url(#bearGradient)"/>
<path d="M505.32 266H518.68L526.512 266.459V267.377H537.107L542.636 268.295L548.164 268.754L552.31 269.672L558.299 270.59L561.524 271.508L569.816 272.885L575.344 274.262V275.18L579.03 275.639L584.558 277.016L596.536 281.147L601.142 282.982L603.907 283.9L602.985 284.359H601.603L610.356 288.031L617.727 291.244L626.941 295.834V296.752L629.705 297.211L630.166 298.588L631.087 299.047V299.965L634.312 300.424L635.233 303.637L636.615 304.096L638.919 306.391L640.301 311.44L637.537 311.899L634.772 310.522L629.705 310.981H626.019L623.255 311.899L619.57 312.817L619.109 314.194H617.727V315.57L616.345 316.488L615.884 318.783L614.502 320.619H613.581L612.66 322.455L610.356 323.373L610.817 326.586L609.895 328.881L607.592 331.176L607.131 334.389L608.513 334.848V335.766L606.21 336.225L605.289 338.979L604.367 340.356H601.603L600.682 345.405L599.3 347.7L597.918 349.535L597.457 352.748L596.996 353.666H596.075L596.996 355.043L596.536 357.338L594.693 360.092H593.771L593.311 364.223H592.389V367.436L591.468 369.731V376.616L593.771 380.288L597.457 383.959L598.839 384.877L599.76 390.385V391.762L596.075 389.926L595.614 389.008L592.389 387.631L586.861 384.877V383.959L582.254 382.582L578.569 380.747L574.423 379.829L567.052 377.075L557.377 374.78L555.074 373.862L549.546 372.944L544.939 371.567L537.568 370.649V369.731H530.197L520.062 368.813L511.309 368.354H499.331L485.05 369.731L475.376 371.108H470.769L466.623 368.354V367.436L464.319 366.518L460.634 364.223V363.305L457.87 362.846L451.881 360.551V359.633H448.195L443.588 358.715H430.228L422.397 360.551L415.487 363.305L409.498 367.436L403.969 372.485L401.205 374.78L397.981 379.37L394.295 385.795L390.61 395.434L388.767 405.532L387.846 412.417L385.542 414.711L380.935 417.924L373.564 422.973L368.497 426.645L361.126 432.153L350.991 439.497L345.002 444.087L339.934 448.217L336.249 450.971L333.945 453.266L328.417 459.233L317.821 469.79L314.136 473.003L312.293 475.298L307.686 478.511L304.922 479.888L301.237 483.1L298.933 484.936L294.787 490.903L291.562 496.411L289.72 499.624L286.956 503.755L283.731 508.345H282.809L282.349 509.722L280.045 512.017L277.742 513.852H276.821V514.77H275.899L275.438 517.983L273.596 518.442V519.819L270.371 522.114H269.45L268.528 524.409L267.607 526.245L265.303 527.163L264.382 525.786L266.225 523.95L266.685 522.114L265.303 521.655L264.382 517.524L263.461 515.688L263 506.968L263.461 493.198L265.303 479.429L267.607 466.118L271.753 448.676L275.438 436.284L278.663 426.645L281.427 419.76L285.574 410.581L292.484 396.811L300.776 383.041L306.304 374.321L309.99 369.272L313.215 364.682L315.057 362.387L320.125 355.961L323.81 351.83L327.957 346.782L342.698 332.094L350.069 325.668H350.991L351.451 324.291L356.519 320.16L361.126 316.488L366.654 312.358L375.407 306.391L383.239 301.342L395.216 294.916L403.969 290.326L409.037 288.031L425.161 281.606L428.846 281.147V280.229L436.678 277.934L443.588 275.639L456.027 272.426L460.173 271.967L467.083 270.131L476.758 268.754L484.129 267.836L485.971 267.377L505.32 266Z" fill="url(#bearGradient)"/>
<path d="M601.142 283.9L605.289 284.359L610.817 286.654L615.424 288.949L618.648 290.326L626.019 293.998L632.469 297.67L633.851 298.129V299.047L636.154 299.965L639.84 301.801L648.132 306.85L651.818 309.604L655.503 311.899V312.817L657.807 313.735L665.178 319.242L671.167 324.291L680.841 332.553V333.471L682.684 334.389L691.897 343.569L695.122 347.241L700.65 353.207L704.796 358.256L709.864 364.223L713.089 368.813L715.392 371.567L716.774 373.862L721.381 380.747L725.067 386.713L726.909 389.467L729.673 394.516L734.28 403.237L738.887 412.417L740.269 415.629L742.573 421.137L746.719 431.694L750.865 444.546L751.786 447.759L755.472 462.446L758.236 478.97L760.079 493.657L761 507.427V525.786L760.539 534.966L759.157 544.146H758.697V518.901L758.236 511.099L757.775 508.345L755.932 504.673L753.629 498.706L752.247 488.608H751.326L750.404 484.477L748.562 482.182L748.101 480.347L746.258 478.97L746.719 474.839L743.955 476.216H739.809L737.966 475.757L736.123 476.675L733.82 476.216L731.977 474.839L732.898 473.003L733.359 472.544L732.438 472.085V470.708L731.516 471.167V473.003L728.291 472.544L726.449 472.085L724.145 472.544L712.167 471.167L709.403 470.708L705.718 470.249V469.331H704.796V468.413L702.032 469.331L700.19 464.282L697.886 461.069L694.201 457.856L687.29 453.266L682.223 450.512V449.594L677.616 448.218L669.784 444.087L665.638 442.71L658.728 439.497L652.278 437.202L633.851 429.858L631.087 428.94V428.022L628.784 427.563L624.637 424.809L622.334 422.055L620.491 418.842L617.727 413.794L613.12 405.532L610.356 401.401L606.671 398.188L602.985 394.057L599.76 392.221L598.839 387.631L598.378 384.877L594.693 381.665L592.389 379.37L591.007 376.616V369.731L591.929 367.436L592.389 364.223H593.311V361.01L593.771 360.092H594.693L596.536 356.42L596.075 353.666H596.996L597.457 349.535L600.221 345.864L600.682 343.11L601.603 340.356L604.367 339.897L606.21 336.225L608.513 335.766L606.671 333.471L607.592 330.717L608.974 328.881H609.895L610.356 325.668L609.895 324.75L610.356 323.373L613.12 321.537L613.581 320.619H614.502L615.424 318.783L616.345 316.029L617.727 315.57V314.194L620.491 311.899L627.401 310.522H632.469L634.772 310.063L637.997 311.44H640.301L638.458 306.391L636.154 304.555L634.312 301.801V300.424L631.087 299.965V299.047L629.705 298.588V297.211L626.941 296.752V295.834L624.177 294.916L616.806 291.244L612.66 289.408L601.603 284.818L601.142 283.9Z" fill="url(#bearGradient)"/>
<path d="M596.075 592.798H598.839L599.76 593.257L599.3 595.093L604.828 593.716L606.21 592.798L605.749 598.306L605.289 602.896L606.21 604.732V609.781L608.053 610.699L605.749 612.994L606.21 614.829L608.053 615.747V616.665L609.435 617.124L608.053 620.337L607.131 620.796L605.749 620.337V622.632L606.671 623.091L605.749 623.55V625.386L609.435 625.845L610.817 627.222V630.435H614.502L615.424 633.189L618.648 633.648L617.727 635.943L619.109 640.074L620.491 640.533L621.412 641.91V644.205L619.109 646.041L618.648 647.418L619.109 648.794L624.637 650.171V651.548L623.716 652.466L624.177 653.384H626.48L626.941 651.548L627.862 652.007V654.302L629.705 654.761L629.244 657.056H627.862L627.401 656.138L626.48 657.056L627.862 658.433L628.783 660.269L629.705 668.531L630.165 670.826L630.626 671.744L632.93 671.285L635.233 674.498L635.694 674.957V676.334H632.469L631.087 676.793L630.626 677.711H631.548V681.382L631.087 682.759L634.312 683.677L635.694 685.054V689.185L634.312 690.103V691.021L635.233 691.48L634.772 694.234L635.694 697.447L635.233 697.906V703.414H633.851L636.615 705.709L637.076 707.545H634.312L634.772 708.463L637.997 709.84L638.918 712.135L643.525 713.053L646.289 714.888L647.211 716.724L649.054 718.56L648.593 719.478L649.975 719.937L647.671 722.232H645.829V723.15L641.222 725.904L631.087 731.871H630.165L629.705 732.789L625.559 734.625H624.637V735.543L618.188 738.756L615.884 739.215V740.133H614.963V741.51L609.435 744.264L602.985 746.559L598.839 748.394L590.547 751.148L587.322 752.525L581.333 753.902L573.962 756.197L570.737 757.115L565.209 758.033H554.613L548.624 756.197L542.175 752.984L538.95 750.23L534.804 745.182L530.197 736.461L527.894 730.494L524.669 717.642L523.287 712.594L522.365 705.709L521.905 699.742V685.972L522.826 673.58L525.59 662.105L527.433 655.22L532.5 643.287L533.422 642.369L534.804 639.156L538.95 631.812L541.714 627.681L545.4 622.632L552.31 615.288L558.759 608.863L563.827 604.732L568.894 601.06L575.805 596.47L578.108 595.093L582.254 594.634L585.479 593.716L589.625 594.175L592.389 593.257L596.536 593.716L596.075 592.798Z" fill="url(#bearGradient)"/>
<path d="M371.261 313.276L374.025 314.194L373.564 316.488L369.879 317.865V319.242L374.946 321.996V324.291L378.632 326.127L380.935 326.586L382.317 327.963L384.16 326.586L386.463 331.176L386.924 333.012L389.228 333.93L390.149 335.307L389.688 339.438L392.452 343.569L393.374 346.782L394.295 348.158L398.902 349.994L401.205 352.289L401.666 353.666L403.969 353.207L405.812 354.584L406.273 353.666L411.801 353.207L412.722 352.748H416.408L421.476 355.043L422.397 355.961L427.464 356.879V358.256L428.386 357.797H444.049L445.892 358.715H430.229L422.397 360.551L415.487 363.305L409.498 367.436L403.969 372.485L401.205 374.78L397.981 379.37L394.295 385.795L390.61 395.434L388.767 405.532L387.846 412.417L385.542 414.711L380.935 417.924L373.564 422.973L368.497 426.645L361.126 432.153L350.991 439.497L345.002 444.087L339.934 448.217L336.249 450.971L333.945 453.266L328.417 459.233L317.821 469.79L314.136 473.003L312.293 475.298L307.686 478.511L304.922 479.887L301.237 483.1L298.933 484.936L294.787 490.903L291.562 496.411L289.72 499.624L286.956 503.755L283.731 508.345H282.809L282.349 509.722L280.045 512.017L277.742 513.852H276.821V514.77H275.899L275.438 517.983L273.596 518.442V519.819L270.371 522.114H269.45L268.528 524.409L267.607 526.245L265.303 527.163L264.382 525.786L266.225 523.95L266.685 522.114L265.303 521.655L264.382 517.524L263.461 515.688L263 506.968L263.461 493.198L265.303 479.429L267.607 466.118L271.753 448.676L275.438 436.284L278.663 426.645L281.427 419.76L284.652 412.417L285.574 412.876L287.416 409.204H288.338L288.798 405.991L295.248 394.975L299.394 387.631L302.158 383.041L305.844 377.534L308.608 373.862L309.99 371.567L315.057 364.682L318.743 360.092L322.889 355.502L326.114 351.371L327.035 349.994H327.957L328.417 348.617L332.103 345.405L334.406 342.651H335.327L336.249 340.815L338.092 339.897V338.979L341.777 335.766L345.002 333.012L345.923 331.635H346.845V330.717L353.294 325.668L359.283 320.619L362.047 318.324L364.811 317.406H368.036L368.957 314.653L371.261 313.276Z" fill="url(#bearGradient)"/>
<path d="M678.998 539.556H679.459V543.228L678.077 547.817L674.852 551.948L670.245 555.62H668.863V556.538L666.099 557.915H664.717V558.833L663.335 560.21H662.414L661.492 562.046L659.649 564.341L659.189 566.177L660.11 568.013L661.492 568.472H667.942L667.481 569.39L660.571 569.849L658.267 570.767L661.492 571.226V572.144L664.256 572.603L665.638 573.521V574.439L667.942 575.357L672.088 579.488L673.47 579.029L673.931 576.734L676.695 574.898L681.762 574.439L684.066 575.816L684.526 576.734L686.83 577.193L686.369 579.029L690.055 579.488L691.437 581.323L690.515 583.618L689.594 584.995L690.976 586.372L690.515 587.749H691.897V590.044H692.819V590.962H691.897L692.358 593.257V594.634H695.583L698.347 595.552L697.886 596.47V601.06L698.347 601.519H701.572L703.414 599.683L706.639 598.306L707.561 596.929L709.403 597.388L708.943 599.683H708.021L707.1 601.978L705.718 603.355L706.179 604.273L708.482 604.732L708.943 603.814L707.561 603.355L708.943 602.896L711.246 603.814L714.01 603.355L717.696 606.109L718.156 607.945L719.078 608.863L718.617 610.699L715.853 611.158L714.471 612.076L713.089 610.24L712.628 607.945H710.325V607.027H706.639L705.257 607.486V608.404L699.729 608.863L695.122 609.781V610.699L690.976 612.535L688.212 613.452L687.29 616.206L684.066 616.665L679.459 614.829L680.38 612.076L681.762 611.158V608.863L677.616 609.322L676.234 609.781L675.313 609.322V607.945L673.009 609.322L672.549 611.617L671.627 612.535V614.37L674.852 613.911L676.695 615.747L675.773 617.583H674.852L674.391 619.419L674.852 620.796L676.234 621.255L677.155 622.632V624.468L678.077 624.927L677.155 625.845L678.998 626.763L677.155 628.599L676.695 630.894H680.38L681.762 633.189V635.025L683.605 636.861V638.238L680.841 638.697H679.92V639.615H678.998L680.38 642.369L682.223 643.287L682.684 644.205H684.066L684.526 642.369L683.605 640.074L685.448 640.533L686.83 639.615L689.133 640.074L688.673 646.499V647.417L690.976 647.876L691.897 648.335V650.63L694.201 651.089V652.466H695.122L693.279 656.138L692.358 660.728L692.819 662.564L690.976 664.859L688.673 665.777L688.212 672.662L686.369 674.957V676.793H684.526L684.987 679.088L684.526 679.546L686.369 681.382L685.908 684.136L684.526 684.595L685.448 686.89L687.751 687.808L688.673 689.644L687.29 691.021L686.369 690.562L686.83 692.398L688.212 692.857L689.133 694.693V696.988L687.29 697.906L686.83 699.283L689.133 700.201L689.594 701.578L689.133 702.955L687.751 703.414H686.83H684.987L685.448 704.791L683.605 704.332L682.223 702.496V699.742L678.998 698.824L678.537 701.119L681.762 702.955L682.684 705.709L685.448 705.25L686.83 706.627H688.212L690.515 709.381L690.976 710.758L689.594 713.511H691.897L692.358 714.888H693.279L693.74 712.593L697.426 710.758H698.347L699.268 712.593L698.808 717.183L699.268 718.56L703.414 717.183L707.1 715.347L708.482 710.758L709.864 709.84L710.325 707.545V707.086L709.864 705.709L710.325 704.791H711.246L710.325 703.414L708.021 702.496L708.482 701.578H710.785L711.246 702.496L713.549 703.414L715.392 705.25L714.932 707.086L716.314 709.381H714.932L715.853 714.888V716.724L714.932 717.183L715.392 721.314L713.549 721.773V720.396L711.707 720.855L712.167 722.691L711.246 727.281L708.943 727.74V731.412L709.864 732.789L706.639 732.33L708.021 734.625V735.543L709.403 736.002L707.1 736.461L702.493 736.92L696.043 736.461L689.594 734.166L678.998 730.494L667.942 726.822L664.256 725.445L653.2 721.773L652.739 721.314H650.436L646.75 724.068L632.469 732.789L626.941 735.543L620.031 739.215L615.884 741.051H614.963V740.133H615.884V739.215L620.031 737.379L623.716 735.543H624.637V734.625L632.008 730.953L638.919 726.822L644.447 723.609L645.829 723.15V722.232L648.132 721.314L649.514 719.937L648.593 719.478L648.132 717.642L644.447 713.97L641.683 713.052L638.458 712.135L637.537 709.84L634.312 708.463V707.545L635.694 707.086L637.076 707.545L635.233 704.791L632.93 702.955L633.851 702.496L634.772 702.955V697.906L635.233 696.988L634.312 693.316L634.772 691.48L633.851 689.644L635.233 689.185V684.595L633.851 683.677L630.626 682.759L631.548 677.711H630.626L631.087 676.334L633.851 675.875L635.694 676.334L635.233 675.416L634.312 674.957V673.58L632.93 671.744H630.626L629.705 671.285L628.784 665.777L628.323 660.269L626.48 657.515V656.138L627.862 655.679V657.056H629.244V654.761H627.401V652.007L626.941 651.548L626.48 653.843H624.177L623.255 652.007L624.637 650.63L619.109 649.253L618.188 646.958L620.031 644.664L620.952 644.205V641.91L618.188 638.697L617.266 635.025L618.188 634.107L615.424 633.189L614.502 630.894L610.817 630.435L610.356 627.222L609.435 626.304L605.749 625.386L605.289 623.091L605.749 622.632V620.337L608.053 619.878L608.974 617.124L607.592 615.747L605.289 614.37L605.749 611.617L607.592 611.158L605.749 608.863V604.732L604.828 602.896V600.142L605.289 598.306V595.552L605.749 593.257L603.907 594.634L599.3 595.093L599.76 593.257H596.996L596.536 594.175L591.929 593.716L589.625 594.634L584.558 594.175L581.333 595.093H579.03L580.872 593.257L593.772 586.831L599.3 584.536L602.985 583.159L615.884 579.029L620.031 577.652L626.019 575.357L635.694 571.685L642.604 568.472L646.75 566.636L654.582 562.046L659.649 558.374L664.256 555.161L666.56 552.866L669.324 550.571L671.627 548.276L677.155 542.31L678.998 539.556Z" fill="url(#bearGradient)"/>
<path d="M505.32 266H518.68L526.512 266.459V267.377H537.107L542.636 268.295L548.164 268.754L552.31 269.672L558.299 270.59L561.524 271.508L569.816 272.885L575.344 274.262V275.18L579.03 275.639L584.558 277.016L596.536 281.147L601.142 282.982L603.907 283.9L602.985 284.359H601.603L610.356 288.031L617.727 291.244L626.941 295.834V296.752L629.705 297.211L630.166 298.588L631.087 299.047V299.965L634.312 300.424L635.233 303.637L636.615 304.096L638.919 306.391L640.301 311.44L637.537 311.899L634.772 310.522L629.705 310.981H626.019L623.255 311.899L619.57 312.817L619.109 314.194H617.727V315.571L616.345 316.488L615.884 318.783L614.502 320.619H613.581L612.66 322.455L610.356 323.373L610.817 326.586L609.896 328.881L607.592 331.176L607.131 334.389L608.513 334.848V335.766L606.21 336.225L605.289 338.979L604.367 340.356H601.603L600.682 345.405L599.3 347.7L597.918 349.535L597.457 352.748L596.996 353.666H596.075L596.996 355.043L596.536 357.338L594.693 360.092H593.772L593.311 364.223H592.389V367.436L591.468 369.731V376.616L593.772 380.288L597.457 383.959L598.839 384.877L599.76 390.385V391.762L596.075 389.926L595.614 389.008L592.389 387.631L586.861 384.877V383.959L582.254 382.583L578.569 380.747L574.423 379.829L567.052 377.075L557.377 374.78L555.074 373.862L549.546 372.944L544.939 371.567L537.568 370.649V369.731H534.343V368.813H530.197L526.512 367.436L526.051 366.059L524.208 365.141L523.287 364.223L521.905 360.551L519.601 359.174L517.298 356.879L516.377 355.502L514.994 355.043L513.612 352.748V351.83L511.309 351.371V349.077L509.466 349.535L507.624 347.241L507.163 342.651L505.781 339.897L506.241 334.389L507.163 333.012H509.006L508.545 331.176V327.963L510.848 323.373L509.466 321.996L509.006 320.16L509.927 318.783L509.466 316.488L509.006 316.029L509.466 310.981L510.848 308.686V306.391L515.455 304.096L516.377 301.801H515.455L516.377 299.047L514.534 297.211V293.998H515.455L515.916 291.703H516.837L517.298 288.49L515.916 288.031L516.377 286.195H517.298L517.759 283.441H518.68L517.759 281.147L518.219 279.311L520.523 277.934H521.444V276.557L526.972 276.098V275.18H527.894V274.262L525.59 273.803L523.747 272.885V271.967L523.287 270.59H519.601L515.916 269.672L510.848 269.213H501.635L483.668 270.59L473.072 271.967L467.083 272.885L457.409 274.721L455.566 275.18H451.42L452.341 273.803L456.027 273.344V272.426L460.173 271.967L467.083 270.131L476.758 268.754L484.129 267.836L485.971 267.377L505.32 266Z" fill="url(#bearGradient)"/>
<path d="M601.142 283.9L605.289 284.359L610.817 286.654L615.424 288.949L618.648 290.326L626.019 293.998L632.469 297.67L633.851 298.129V299.047L636.154 299.965L639.84 301.801L648.132 306.85L651.818 309.604L655.503 311.899V312.817L657.807 313.735L663.335 317.865L662.413 318.324L664.717 320.619L669.784 325.209L674.852 329.34L682.223 336.225L692.819 346.782L697.426 351.83L700.65 355.502L702.493 357.797L703.875 360.551V361.469H704.796L705.718 363.305L707.1 363.764L708.482 367.436L710.325 371.108L713.089 377.075L714.471 381.206V383.041L711.707 382.123L709.864 379.829L709.403 377.993L705.257 376.157L702.954 375.239H698.808L697.426 374.321V375.239L698.347 375.698L695.122 376.157V377.075L692.358 379.37H691.437L692.358 377.075L694.661 376.616V375.698H695.583L696.043 372.944L694.661 373.862L690.515 374.321L689.594 376.157L686.83 376.616L687.29 380.747L685.448 381.206L684.066 382.582L680.841 383.5H678.077V385.795L677.155 386.254H673.009V387.631L669.784 388.549H668.402V389.467H667.481L666.56 391.303L665.178 391.762L663.335 393.598L659.649 394.057V394.975L656.425 394.516L655.043 396.352H651.818L647.672 397.729L646.75 399.565L643.525 400.024L643.065 399.106L638.458 400.483V401.401H636.615V400.483L632.008 401.86L629.244 404.155H628.323V406.909H627.401V411.04L627.862 412.876V416.088L627.401 417.006L626.019 417.924L624.637 418.383V419.301H623.716L623.255 422.514L622.334 422.055L620.491 418.842L617.727 413.794L613.12 405.532L610.356 401.401L606.671 398.188L602.985 394.057L599.76 392.221L598.839 387.631L598.378 384.877L594.693 381.664L592.389 379.37L591.007 376.616V369.731L591.929 367.436L592.389 364.223H593.311V361.01L593.771 360.092H594.693L596.536 356.42L596.075 353.666H596.996L597.457 349.535L600.221 345.864L600.682 343.11L601.603 340.356L604.367 339.897L606.21 336.225L608.513 335.766L606.671 333.471L607.592 330.717L608.974 328.881H609.895L610.356 325.668L609.895 324.75L610.356 323.373L613.12 321.537L613.581 320.619H614.502L615.424 318.783L616.345 316.029L617.727 315.57V314.194L620.491 311.899L627.401 310.522H632.469L634.772 310.063L637.997 311.44H640.301L638.458 306.391L636.154 304.555L634.312 301.801V300.424L631.087 299.965V299.047L629.705 298.588V297.211L626.941 296.752V295.834L624.177 294.916L616.806 291.244L612.66 289.408L601.603 284.818L601.142 283.9Z" fill="url(#bearGradient)"/>
<path d="M702.493 467.495L704.797 468.413V469.331H705.718V470.249H710.325L714.932 471.167L725.988 472.085L727.831 471.626L731.516 473.003L731.056 471.167L732.438 470.708V472.085L734.28 473.003L732.438 473.921L732.898 475.298L734.741 476.216L737.044 475.757L738.427 475.298L739.809 475.757H743.955L745.337 474.839H746.719L747.18 477.134L746.719 478.97L749.022 480.806L749.483 483.1L750.865 484.477L751.326 487.69L752.708 489.067L754.55 500.542L757.315 506.509L758.697 510.181V514.312L759.157 522.573V532.212L758.697 547.818L757.315 556.997L755.472 564.341L754.55 571.226L751.786 572.603L750.404 575.357L748.101 575.816L746.719 572.603V568.013L745.337 568.931L744.876 566.177V564.341L742.573 563.423L743.033 560.669L738.427 558.833L737.966 558.374H734.741L733.82 557.456V556.079L727.831 555.161L724.606 554.702L724.145 553.784L720.921 553.325L718.617 550.571L718.156 549.653L715.392 548.736V550.112H714.01V548.277H708.021L704.797 545.982L700.65 546.441L698.808 545.523L698.347 544.605L696.044 544.146L695.122 543.687L692.819 544.146H685.908L684.066 543.228L683.605 540.474L683.144 537.261L681.762 535.884L685.448 530.376L688.673 524.868L690.515 520.278L691.897 518.442L695.122 509.263L697.886 501.46L702.032 484.936L702.493 478.97V467.495Z" fill="url(#bearGradient)"/>
<path d="M505.32 266H518.68L526.512 266.459V266.918L502.095 267.377L515.916 267.836L524.669 268.754L540.332 270.131L554.613 271.967L562.445 273.344L567.513 274.262L573.041 276.557L577.187 277.934L579.49 280.229L579.03 282.065L577.648 282.524L573.962 282.982L573.041 284.359L567.973 285.277L565.67 287.113L564.748 288.49L561.984 289.408L562.445 292.621L562.906 293.998L561.984 294.916L561.524 292.621H560.142V291.703L559.22 292.162L559.681 297.67L559.22 299.506L559.681 304.096L558.299 308.686H557.377L558.299 311.44L557.838 314.194L554.613 316.488L555.074 321.537L556.917 321.996L557.377 321.078L557.838 322.914L556.917 323.832L555.535 327.963L553.692 331.176L552.31 334.389L551.849 335.307H550.928L550.007 337.602L549.085 340.815L549.546 344.028L547.703 347.241V351.371L546.782 354.125V357.338L545.86 357.797L546.321 359.633V363.305L548.164 364.223L548.624 366.518L548.164 367.895L548.624 370.19L549.546 372.026L553.231 372.944L551.849 373.403L544.939 371.567L537.568 370.649V369.731H534.343V368.813H530.197L526.512 367.436L526.051 366.059L524.208 365.141L523.287 364.223L521.905 360.551L519.601 359.174L517.298 356.879L516.377 355.502L514.994 355.043L513.612 352.748V351.83L511.309 351.371V349.077L509.466 349.535L507.624 347.241L507.163 342.651L505.781 339.897L506.241 334.389L507.163 333.012H509.006L508.545 331.176V327.963L510.848 323.373L509.466 321.996L509.006 320.16L509.927 318.783L509.466 316.488L509.006 316.029L509.466 310.981L510.848 308.686V306.391L515.455 304.096L516.377 301.801H515.455L516.377 299.047L514.534 297.211V293.998H515.455L515.916 291.703H516.837L517.298 288.49L515.916 288.031L516.377 286.195H517.298L517.759 283.441H518.68L517.759 281.147L518.219 279.311L520.523 277.934H521.444V276.557L526.972 276.098V275.18H527.894V274.262L525.59 273.803L523.747 272.885V271.967L523.287 270.59H519.601L515.916 269.672L510.848 269.213H501.635L483.668 270.59L473.072 271.967L467.083 272.885L457.409 274.721L455.566 275.18H451.42L452.341 273.803L456.027 273.344V272.426L460.173 271.967L467.083 270.131L476.758 268.754L484.129 267.836L485.971 267.377L505.32 266Z" fill="url(#bearGradient)"/>
<path d="M289.259 418.842L291.102 420.678V421.596L294.327 420.678L300.315 421.137L303.54 421.596L304.922 422.973L306.304 423.891L308.608 426.186L310.451 428.94L312.754 429.858H315.518L316.9 432.153V433.071L321.507 432.612L322.428 431.694L325.192 432.612L325.653 433.989L329.339 434.448L330.26 435.366H336.249V434.448L338.552 433.989L339.934 434.448L342.238 433.53L344.08 434.448V435.366H348.687L353.294 434.448H354.216L354.676 433.53L359.744 432.153L361.587 431.235L360.204 433.071L356.98 434.907L345.002 444.087L339.934 448.217L336.249 450.971L333.945 453.266L328.417 459.233L317.821 469.79L314.136 473.003L312.293 475.298L307.686 478.511L304.922 479.888L301.237 483.1L298.933 484.936L294.787 490.903L291.562 496.411L289.72 499.624L286.956 503.755L283.731 508.345H282.809L282.349 509.722L280.045 512.017L277.742 513.853H276.821V514.77H275.899L275.438 517.983L273.596 518.442V519.819L270.371 522.114H269.45L268.528 524.409L267.607 526.245L265.303 527.163L264.382 525.786L266.225 523.95L266.685 522.114L265.303 521.655L264.382 517.524L263.461 515.688L263 506.968L263.461 493.198L265.303 479.429L267.607 466.118L270.371 454.184L271.753 454.643L272.214 451.889H273.135V450.971H274.056V446.382L276.821 444.546V441.333L278.663 440.874L279.585 441.333L280.045 436.743L281.427 434.448L279.585 430.776L281.888 427.563L282.809 423.891L284.652 423.432L285.113 425.268H286.034L285.113 422.514L287.877 420.678L289.259 418.842Z" fill="url(#bearGradient)"/>
<path d="M662.413 318.324L664.717 318.783L680.841 332.553V333.471L682.684 334.389L691.897 343.569L695.122 347.241L700.65 353.207L704.796 358.256L709.864 364.223L713.089 368.813L715.392 371.567L716.774 373.862L721.381 380.747L725.067 386.713L726.909 389.467L729.673 394.516L734.28 403.237L738.887 412.417L740.269 415.629L742.573 421.137L746.719 431.694L750.865 444.546L751.786 447.759L755.472 462.446L758.236 478.97L760.079 493.657L761 507.427V525.786L760.539 534.966L759.157 544.146H758.697V518.901L758.236 511.099L757.775 508.345L755.932 504.673L753.629 498.706L752.247 488.608H751.326L750.404 484.477L748.561 482.182L748.101 480.347L746.258 478.97L746.719 474.839L743.955 476.216H739.808L737.966 475.757L736.123 476.675L733.82 476.216L731.977 474.839L732.898 473.003L733.359 472.544L732.438 472.085V470.708L731.516 471.167V473.003L728.291 472.544L726.449 472.085L724.145 472.544L712.167 471.167L709.403 470.708L705.718 470.249V469.331H704.796V468.413L702.032 469.331L700.19 464.282L697.886 461.069L694.201 457.856L687.29 453.266L682.223 450.512V449.594L677.616 448.217L673.931 446.382V445.005H673.009V444.087H673.931V442.71H675.313L674.391 439.956L674.852 437.202L677.155 435.366L679.459 432.153L684.066 429.858L688.212 428.022H689.133L689.594 426.645L691.437 424.809L695.122 423.432L697.425 422.514H700.65V421.596H701.572L702.493 419.76L704.336 417.924L711.707 417.006L712.167 416.547H715.853L716.774 414.712L721.381 412.417V413.794L724.145 412.876L724.606 411.958L726.449 411.499L726.909 412.876L729.213 413.335L729.673 411.499L732.898 412.876V409.204L728.752 400.942L727.831 398.188L724.606 392.221V391.303H723.685L723.224 389.467L717.696 380.288L717.235 378.452L715.853 377.993L714.471 376.616L712.628 372.485L709.864 369.272L708.943 366.059L707.561 364.223V363.305H706.639L706.178 361.469L704.336 360.551L700.19 355.502L694.661 349.535L692.819 347.241L690.515 345.405L687.29 341.733L678.077 332.553L674.391 329.34L667.942 323.832L662.413 319.242V318.324Z" fill="url(#bearGradient)"/>
<path d="M601.142 283.9L605.289 284.359L610.817 286.654L615.424 288.949L618.648 290.326L626.019 293.998L632.469 297.67L633.851 298.129V299.047L636.154 299.965L639.84 301.801L648.132 306.85L651.818 309.604L655.503 311.899V312.817L657.807 313.735L663.335 317.865L662.413 318.324L664.717 320.619L669.784 325.209L674.852 329.34L682.223 336.225L683.144 338.979L684.526 339.897L680.841 340.356L678.537 338.52L676.234 337.143L673.931 334.389L671.167 333.93H667.481L666.099 335.307H665.178V334.389H659.649L658.728 335.307V336.684H656.885V335.307L654.582 335.766L655.503 336.684L655.043 338.52L654.121 340.356V342.651L651.818 344.028L648.132 344.487L646.75 347.241L644.447 348.159L641.222 348.618L638.919 349.535V350.453L636.615 351.83H635.694L636.154 355.961L634.312 359.174L633.851 361.469L634.312 362.846L632.008 362.387V363.305H633.39L633.851 365.141L632.008 368.354H630.166V369.272L632.008 371.108L627.401 372.944L624.177 373.862L622.334 375.239L619.109 376.616L615.424 378.452L614.963 380.288L612.199 381.665L610.817 383.959L608.974 385.795L608.513 389.008L607.592 391.762H605.749L606.671 394.057V395.434H607.592V397.729L608.974 399.106L608.513 400.024L604.828 396.352L602.985 394.057L599.76 392.221L598.839 387.631L598.378 384.877L594.693 381.665L592.389 379.37L591.007 376.616V369.731L591.929 367.436L592.389 364.223H593.311V361.01L593.771 360.092H594.693L596.536 356.42L596.075 353.666H596.996L597.457 349.535L600.221 345.864L600.682 343.11L601.603 340.356L604.367 339.897L606.21 336.225L608.513 335.766L606.671 333.471L607.592 330.717L608.974 328.881H609.895L610.356 325.668L609.895 324.75L610.356 323.373L613.12 321.537L613.581 320.619H614.502L615.424 318.783L616.345 316.029L617.727 315.57V314.194L620.491 311.899L627.401 310.522H632.469L634.772 310.063L637.997 311.44H640.301L638.458 306.391L636.154 304.555L634.312 301.801V300.424L631.087 299.965V299.047L629.705 298.588V297.211L626.941 296.752V295.834L624.177 294.916L616.806 291.244L612.66 289.408L601.603 284.818L601.142 283.9Z" fill="url(#bearGradient)"/>
<path d="M695.583 509.722H696.504L697.426 512.017L698.347 514.771L702.954 514.312L709.403 511.558H711.707L715.853 512.935H718.617L722.763 513.853L725.527 515.688L730.595 516.606L731.056 518.442L735.202 518.901L740.73 521.655L744.415 522.573L745.797 521.655L747.64 522.114L748.101 523.032L748.562 527.622L751.786 531.753L752.247 537.72L754.55 537.261L756.393 537.72L757.775 540.933V549.194L756.393 561.128L755.472 564.341L754.55 571.226L751.786 572.603L750.404 575.357L748.101 575.816L746.719 572.603V568.013L745.337 568.931L744.876 566.177V564.341L742.573 563.423L743.033 560.669L738.427 558.833L737.966 558.374H734.741L733.82 557.456V556.079L727.831 555.161L724.606 554.702L724.145 553.784L720.921 553.325L718.617 550.571L718.156 549.653L715.392 548.736V550.112H714.01V548.277H708.021L704.797 545.982L700.65 546.441L698.808 545.523L698.347 544.605L696.044 544.146L695.122 543.687L692.819 544.146H685.908L684.066 543.228L683.605 540.474L683.144 537.261L681.762 535.884L685.448 530.376L688.673 524.868L690.515 520.278L691.437 519.819V521.655L694.201 520.737V521.655L695.122 521.196L696.504 518.442L697.886 516.606V515.23L696.965 515.688V514.312L695.583 514.771L696.044 513.394L695.583 511.558V509.722Z" fill="url(#bearGradient)"/>
<path d="M502.095 266.918H526.511L537.107 267.377L542.635 268.295L548.164 268.754L552.31 269.672L558.299 270.59L561.524 271.508L569.816 272.885L575.344 274.262V274.721L573.041 275.18L579.03 277.016V277.934L582.254 278.393L585.479 280.229L587.322 280.688V281.606H589.625L591.468 283.442H592.389V284.359L594.232 284.818L599.76 286.654L602.985 288.031L603.446 289.867L600.682 290.785L599.76 291.703L597.457 291.244L593.771 293.08L591.468 292.162L590.086 293.539L592.85 294.457V294.916H589.165L586.861 297.67L585.479 301.342L585.018 304.555L584.097 307.768L584.558 312.817L585.018 315.112L583.636 317.865L582.254 321.078L580.412 323.832H579.49V325.209H578.569L578.108 327.504L574.423 330.717H573.501L573.041 334.848L571.198 338.52L571.659 339.438L571.198 342.192H570.277L570.737 344.028L568.434 346.782L566.13 351.371L565.67 354.125L563.827 355.043L563.366 355.961V359.633L562.906 361.01L563.827 365.141L566.13 367.895L566.591 370.649L563.827 371.567L563.366 373.862L564.288 374.321L564.748 376.157H567.973L573.041 378.452L572.119 378.911L567.052 377.075L557.377 374.78L549.546 372.026L547.703 369.731V366.977L548.164 365.141V364.223L545.86 363.305V359.174V357.338H546.782L546.321 354.125L547.242 349.994V347.241L549.085 344.028L548.624 340.815L549.546 337.602L550.928 335.307H551.849L553.231 331.176L555.995 325.668L556.456 322.914H557.838L557.377 321.537L555.995 321.996L555.074 321.537L554.153 316.489L556.917 314.194H557.838V310.522L557.377 308.686H558.299L559.22 302.719L558.759 298.588L559.22 295.375L558.759 291.703H560.141V292.621H561.524L561.984 294.457L562.445 293.539L561.524 290.326L563.366 288.49L564.748 288.031L567.052 285.277L569.355 284.359L573.041 283.9L573.962 282.524L578.108 282.065L579.03 281.606L578.569 279.77L577.647 278.852L577.187 277.934L571.659 276.557L566.13 274.262L555.995 272.885L550.006 271.967L540.332 270.59L524.669 269.213L515.916 268.295L498.41 267.836V267.377L502.095 266.918Z" fill="url(#bearGradient)"/>
<path d="M371.261 313.276L374.025 314.194L373.564 316.488L369.879 317.865V319.242L374.946 321.996V324.291L378.632 326.127L380.935 326.586L382.317 327.963L384.16 326.586L386.463 331.176L386.924 333.012L389.228 333.93L390.149 335.307L389.688 339.438L392.452 343.569L393.374 346.782L394.295 348.158L398.902 349.994L401.205 352.289L401.666 353.666L403.969 353.207L405.812 354.584L406.273 353.666L411.801 353.207L412.722 352.748H416.408L421.475 355.043L422.397 355.961L427.464 356.879V358.256L428.386 357.797H444.049L445.892 358.715H430.228L422.397 360.551L415.487 363.305L414.104 364.223L410.419 364.682L409.958 365.6L406.734 366.518L404.891 369.731L403.969 370.649L401.666 371.567H397.981L396.598 370.19L395.677 367.895H392.452L389.228 368.354L386.463 366.977L384.621 366.518L381.857 362.846V361.928L378.632 362.387H374.486L373.104 358.256L371.721 357.797L369.418 358.715L367.115 357.338V356.42H368.036L368.497 354.125L363.89 353.666L364.351 355.502L362.508 356.42L362.047 353.207L360.665 352.289H356.98L356.519 349.994L355.598 350.912L352.373 351.371L346.845 350.453L345.462 350.912V351.83L342.698 351.371L342.238 349.076L339.013 348.617L338.092 347.241V345.864L334.867 348.158L333.945 345.405L333.024 344.487L334.406 342.651H335.327L336.249 340.815L338.092 339.897V338.979L341.777 335.766L345.002 333.012L345.923 331.635H346.845V330.717L353.294 325.668L359.283 320.619L362.047 318.324L364.811 317.406H368.036L368.957 314.653L371.261 313.276Z" fill="url(#bearGradient)"/>
<path d="M706.639 667.613L707.1 669.449L708.943 670.367L713.549 684.595L715.392 689.644L718.156 699.742L720.92 707.545L722.302 711.217L725.988 721.314L729.213 730.494L730.134 735.543L727.831 733.707L727.37 731.871L725.527 730.035L725.067 728.199L722.763 723.609L722.302 717.642L720.92 714.889L719.999 709.84L716.774 701.119L714.932 698.824L714.471 696.07L713.089 695.611L712.628 693.316L710.785 688.726L708.482 681.383L707.1 676.334L705.718 673.121L705.257 671.285L706.179 668.072L706.639 667.613Z" fill="url(#bearGradient)"/>
<path d="M350.069 325.668V327.045L349.609 328.881L347.766 330.717H346.845V331.635L343.159 334.848L339.013 338.979H338.092V339.897L335.788 341.733L332.563 345.405L327.956 349.994H327.035L326.114 351.83L321.968 356.879L317.821 361.469L312.754 368.354L309.529 372.485L307.686 375.698L304.462 380.288L302.158 383.5L299.394 388.549L295.248 395.893L290.641 403.696L288.798 407.368L288.338 409.204H287.416L286.495 411.958L285.113 413.794L285.574 410.581L292.484 396.811L300.776 383.041L306.304 374.321L309.99 369.272L313.215 364.682L315.057 362.387L320.125 355.961L323.81 351.83L327.956 346.782L342.698 332.094L346.384 328.881L350.069 325.668Z" fill="url(#bearGradient)"/>
<path d="M678.998 539.556H679.459V543.228L675.313 548.735L671.627 551.948L670.245 552.407V553.325L667.481 555.62H666.099V556.538H664.717L664.256 557.456L663.335 556.997V558.374H661.953V559.292H661.031V560.21H660.11L659.649 561.587H658.728V562.505L655.043 565.259H654.121V566.177L650.436 568.931H648.593V569.849L646.29 570.767H644.908V571.685L643.525 572.603L640.761 573.521L636.615 574.439L633.851 575.357L632.469 574.439L633.851 573.062L635.233 572.603L636.155 571.226L639.84 569.849L644.447 567.554L647.672 566.177L653.661 562.505L656.425 560.669L662.874 556.079L666.56 552.866L669.324 550.571L671.627 548.276L677.155 542.31L678.998 539.556Z" fill="url(#bearGradient)"/>
<path d="M641.683 429.399L647.672 429.858L649.975 430.776L655.503 431.694L660.571 434.907L662.874 436.743L667.02 437.661L668.402 438.579L668.863 443.628L666.56 443.169L658.728 439.497L652.278 437.202L640.761 432.612L637.536 431.235V430.776L641.683 429.399Z" fill="url(#bearGradient)"/>
<path d="M692.358 689.185L695.122 690.103V692.857L696.965 695.152L696.504 697.447H695.583V698.824L698.808 699.283L700.19 701.578L702.032 702.955H707.561L708.021 705.709L706.639 706.627H701.572L700.19 703.873V702.955H697.426L696.044 705.25V706.627L692.819 707.086L692.358 703.873L693.279 702.955V700.201L694.201 699.283L693.74 697.447L695.583 696.988L695.122 694.693H691.897V695.611H690.055L689.594 691.939L691.897 689.644L692.358 689.185Z" fill="url(#bearGradient)"/>
<path d="M662.413 318.324L664.717 318.783L680.841 332.553V333.471L682.684 334.389L691.897 343.569L695.122 347.241L700.65 353.207L704.796 358.256L707.561 361.469L707.1 362.387L704.336 360.551L700.19 355.502L694.661 349.535L692.819 347.241L690.515 345.405L687.29 341.733L678.077 332.553L674.391 329.34L667.942 323.832L662.413 319.242V318.324Z" fill="url(#bearGradient)"/>
<path d="M615.884 579.029H618.188L617.266 579.487V580.405L611.738 583.159L609.435 584.536L604.828 585.454V586.372L595.154 589.585L592.85 590.503H591.468L589.625 591.88L587.322 592.339L585.479 590.962L592.85 587.29L599.3 584.536L602.985 583.159L615.884 579.029Z" fill="url(#bearGradient)"/>
<path d="M484.129 267.836H492.882L491.96 268.754L488.275 269.213H486.893V270.131L477.218 271.508L468.465 272.426L457.409 274.721L455.566 275.18H451.42L452.341 273.803L456.027 273.344V272.426L460.173 271.967L467.083 270.131L476.758 268.754L484.129 267.836Z" fill="url(#bearGradient)"/>
<path d="M718.156 700.66L719.078 702.037L720.921 707.545L722.303 711.217L725.988 721.314L729.213 730.494L730.134 735.543L727.831 733.707L727.37 731.871L725.527 730.035L725.067 728.199L722.763 723.609L722.303 717.642L720.921 714.888L719.999 709.84L717.696 703.414L718.156 700.66Z" fill="url(#bearGradient)"/>
<path d="M310.911 367.895L311.833 369.731L309.529 372.485L307.686 375.698L304.462 380.288L302.158 383.5L299.394 388.549L295.248 395.893L290.641 403.696L288.798 407.368L288.338 409.204H287.416L286.495 411.958L285.113 413.794L285.574 410.581L292.484 396.811L300.776 383.041L306.304 374.321L309.99 369.272L310.911 367.895Z" fill="url(#bearGradient)"/>
<path d="M750.865 451.889H752.247L753.629 454.643L756.393 467.495L756.854 477.593H755.011L754.09 474.38V470.249L754.55 467.954L752.708 467.036L750.865 456.02L751.326 454.643L750.865 452.807V451.889Z" fill="url(#bearGradient)"/>
<path d="M702.493 467.495L703.415 468.872L705.257 474.839L706.179 475.298L706.639 476.675L706.179 485.854L705.257 489.067L702.954 490.444L702.032 489.067L702.493 478.97V467.495Z" fill="url(#bearGradient)"/>
<path d="M678.998 539.556H679.459V543.228L675.313 548.735L671.627 551.948L670.245 552.407V553.325L667.481 555.62H666.099V556.538H664.717L664.256 557.456L663.335 556.997V558.374L658.728 560.21L657.807 559.751L662.874 556.079L666.56 552.866L669.324 550.571L671.627 548.276L677.155 542.31L678.998 539.556Z" fill="url(#bearGradient)"/>
<path d="M578.108 595.093L579.03 595.552L577.187 597.388L573.501 600.601H571.659V601.519L566.591 605.65L562.906 606.568L561.984 608.404L555.995 613.912L552.31 618.042H550.928L551.388 616.206L558.759 608.863L563.827 604.732L568.894 601.06L575.805 596.47L578.108 595.093Z" fill="url(#bearGradient)"/>
<path d="M676.695 724.986L683.144 726.363L689.133 728.199L691.437 729.576L691.897 730.953L689.594 731.871L689.133 732.789H687.751L686.83 733.248L681.762 731.412L682.684 730.494L681.762 730.035L680.841 728.199L677.616 727.74L676.695 724.986Z" fill="url(#bearGradient)"/>
<path d="M572.58 274.721L577.187 275.18L581.794 276.098L585.94 277.475L596.536 281.147L600.682 282.982V283.9L596.996 283.441L589.625 281.147L585.018 279.77L580.872 278.393L579.03 277.934V277.016L573.962 276.098L572.58 274.721Z" fill="url(#bearGradient)"/>
<path d="M718.617 733.707H723.224L721.842 736.461L719.999 739.674L718.156 740.133L717.696 741.51L713.089 741.969L712.628 740.133L713.549 739.674L714.01 737.379V736.461L713.549 735.084H714.931L715.853 736.002L718.617 733.707Z" fill="url(#bearGradient)"/>
<path d="M369.879 310.063L370.8 310.522L371.261 311.44L365.733 315.112L362.508 317.865L360.204 320.16L355.137 324.75L350.991 327.963L349.609 327.504L351.451 324.291L356.519 320.16L361.126 316.489L366.654 312.358L369.879 310.063Z" fill="url(#bearGradient)"/>
<path d="M422.858 282.523H426.082L425.622 283.9L409.498 290.326L403.509 292.621L402.127 293.539L400.745 293.08L403.969 290.326L409.037 288.031L413.644 286.195L422.858 282.523Z" fill="url(#bearGradient)"/>
<path d="M387.385 410.581L387.846 412.417L385.542 414.712L380.935 417.924L373.564 422.973L371.261 423.891L374.486 418.842L376.328 415.171L378.171 414.712L379.553 415.171L381.857 414.712L383.239 414.253L385.542 412.417L387.385 410.581Z" fill="url(#bearGradient)"/>
<path d="M601.142 283.9L605.289 284.359L610.817 286.654L615.424 288.949L618.648 290.326L626.019 293.998L631.548 297.211L632.008 298.588L629.705 298.129V297.211L626.941 296.752V295.834L624.177 294.916L616.806 291.244L612.66 289.408L601.603 284.818L601.142 283.9Z" fill="url(#bearGradient)"/>
<path d="M632.93 298.588L635.694 299.506L640.301 302.26L644.447 304.555L650.436 308.686L655.503 311.899V312.817L657.807 313.735L661.953 316.947L662.414 318.324L660.571 317.865L656.885 315.112L650.896 310.981L649.975 310.522V309.604L647.672 308.686L639.84 303.637L636.154 301.342L633.39 299.965L632.93 298.588Z" fill="url(#bearGradient)"/>
<path d="M446.813 274.721H450.499V275.639L444.51 277.934L436.678 280.229L429.768 282.065L429.307 282.523H426.543L427.464 281.147H428.846V280.229L436.678 277.934L443.588 275.639L446.813 274.721Z" fill="url(#bearGradient)"/>
<path d="M643.065 724.527H643.986L643.065 726.363L637.997 729.576L622.795 737.838L615.884 741.051H614.963V740.133H615.884V739.215L620.03 737.379L623.716 735.543H624.637V734.625L632.008 730.953L638.919 726.822L643.065 724.527Z" fill="url(#bearGradient)"/>
<path d="M739.809 428.94L742.573 430.776L744.415 434.448L745.337 437.661L745.797 441.792L743.955 442.251L742.573 439.956L741.191 435.825L739.809 432.153V428.94Z" fill="url(#bearGradient)"/>
<path d="M724.145 720.855L725.988 721.314L729.213 730.494L730.134 735.543L727.831 733.707L727.37 731.871L725.527 730.035L725.067 728.199L723.224 724.068L724.145 722.232V720.855Z" fill="url(#bearGradient)"/>
<path d="M711.246 711.676L713.089 713.052L713.549 716.724L710.785 718.56L708.943 720.396L706.178 719.937L705.718 718.56L706.639 716.265L708.482 715.347L709.864 713.97L711.246 711.676Z" fill="url(#bearGradient)"/>
<path d="M694.201 513.394L696.965 514.312L698.347 515.229L697.886 517.065L696.043 519.819L695.122 521.655H694.201V520.737L691.437 521.655V518.901L692.819 515.229L693.74 514.771L694.201 513.394Z" fill="url(#bearGradient)"/>
<path d="M706.639 667.613L707.1 669.449L708.943 670.367L711.246 677.711V680.465L710.785 679.547L709.403 679.088L707.1 676.334L705.718 673.121L705.257 671.285L706.179 668.072L706.639 667.613Z" fill="url(#bearGradient)"/>
<path d="M532.04 267.377H537.107L542.636 268.295L548.164 268.754L552.31 269.672L558.299 270.59V271.049L552.31 270.59V271.508L554.153 271.967H550.006L540.332 270.59L535.265 270.131V269.672H543.096L548.164 270.131L536.647 268.295L532.04 267.836V267.377Z" fill="url(#bearGradient)"/>
<path d="M662.413 318.324L664.717 318.783L677.616 329.799L678.537 331.635L680.38 333.471L679.919 334.389L673.47 328.422L668.402 324.291L662.413 319.242V318.324Z" fill="url(#bearGradient)"/>
<path d="M323.81 351.83L324.732 353.666L319.203 360.092L315.057 365.141L312.293 368.813H311.372L311.833 366.518L315.057 362.387L320.125 355.961L323.81 351.83Z" fill="url(#bearGradient)"/>
<path d="M693.279 346.323L695.122 347.241L700.65 353.207L704.796 358.256L707.561 361.469L707.1 362.387L704.336 360.551L700.19 355.502L694.661 349.536L693.279 347.7V346.323Z" fill="url(#bearGradient)"/>
<path d="M463.398 271.049H465.701L467.083 271.508L468.465 272.426L457.409 274.721L455.566 275.18H451.42L452.341 273.803L456.027 273.344V272.426L460.173 271.967L463.398 271.049Z" fill="url(#bearGradient)"/>
<path d="M552.31 270.59L560.602 271.049L567.973 272.885V273.803L569.355 274.262L562.445 273.803L554.613 272.426L552.31 271.508V270.59Z" fill="url(#bearGradient)"/>
<path d="M726.449 738.297L728.291 738.756L728.752 741.969L727.37 742.887L726.909 743.805L728.291 743.346V744.722L726.449 745.181L723.684 744.264L722.763 741.51L724.606 740.592L725.527 738.756L726.449 738.297Z" fill="url(#bearGradient)"/>
<path d="M666.099 322.455L667.942 323.373L672.549 327.504L676.234 330.717L678.998 333.012L678.077 333.471L674.852 332.094L673.47 331.635L672.549 329.34L667.942 326.586L667.481 325.209L666.099 324.75V322.455Z" fill="url(#bearGradient)"/>
<path d="M573.962 599.683L574.883 600.142L573.501 601.519H572.58L572.119 602.896L568.434 605.191H567.512L566.591 607.027L561.984 609.322L561.063 610.699L559.22 611.617L556.917 614.371L554.613 615.289L557.377 612.076L562.445 607.486L563.827 606.109L567.052 604.732L570.737 601.519H571.659V600.601L573.962 599.683Z" fill="url(#bearGradient)"/>
<path d="M286.956 433.071H289.72L291.562 434.907L290.18 436.743H287.416L286.034 437.202L287.416 439.038L289.259 439.956L287.416 440.415L285.574 439.956L285.113 436.743L286.034 433.53L286.956 433.071Z" fill="url(#bearGradient)"/>
<path d="M386.924 299.965V301.342L380.935 305.014L374.486 309.145H373.564V308.227L377.25 305.014L384.16 300.883L386.924 299.965Z" fill="url(#bearGradient)"/>
<path d="M436.678 277.934H439.442V279.311L432.071 281.606L429.307 282.524H426.543L427.464 281.147H428.846V280.229L436.678 277.934Z" fill="url(#bearGradient)"/>
<path d="M562.445 606.568V607.945L555.535 614.37L552.31 618.042H550.928L551.388 616.206L558.759 608.863L562.445 606.568Z" fill="url(#bearGradient)"/>
<path d="M627.862 733.248H630.626L628.783 734.625L620.03 739.215L615.884 741.051H614.963V740.133H615.884V739.215L620.03 737.379L623.716 735.543H624.637V734.625L627.862 733.248Z" fill="url(#bearGradient)"/>
<path d="M361.126 316.488H362.508L361.586 318.324L357.44 321.537L352.373 325.668L350.53 327.504L349.609 327.045L351.451 324.291L356.519 320.16L361.126 316.488Z" fill="url(#bearGradient)"/>
<path d="M567.973 272.885L571.198 273.344L575.344 274.262V274.721L573.041 275.18L579.03 277.016L577.187 277.934L571.659 276.557L567.512 274.721L567.973 272.885Z" fill="url(#bearGradient)"/>
<path d="M734.28 623.091H735.202L734.741 625.386L730.134 634.107L728.752 636.402L728.291 635.025L730.134 630.894L732.898 625.386H733.82L734.28 623.091Z" fill="url(#bearGradient)"/>
<path d="M689.594 454.184L692.358 454.643L695.122 456.02V456.938L696.965 457.397L699.268 459.692L698.808 460.61L697.886 461.069L694.201 457.856L689.594 454.643V454.184Z" fill="url(#bearGradient)"/>
<path d="M290.641 400.483L291.562 401.86L288.798 407.368L288.338 409.204H287.416L286.495 411.958L285.113 413.794L285.574 410.581L289.259 403.237L290.641 400.483Z" fill="url(#bearGradient)"/>
<path d="M649.975 310.522L652.278 311.44L656.885 314.653L661.031 317.865L662.413 318.324L661.953 319.242L660.11 318.783L658.728 317.865V316.947L656.885 316.488L651.818 312.817L649.975 310.522ZM662.413 317.406L663.335 318.324H662.413V317.406Z" fill="url(#bearGradient)"/>
<path d="M535.725 637.32L536.186 638.238L537.107 638.697L536.186 639.156L535.725 640.992H534.804V643.287L533.422 643.746L532.5 647.418L531.579 649.713L529.736 650.63L531.118 646.5L532.961 642.828L535.725 637.32Z" fill="url(#bearGradient)"/>
<path d="M722.763 711.676L723.685 713.052L725.527 718.101V719.019H724.145L724.606 720.855L724.145 721.773H722.763L722.302 714.429H723.224L722.763 711.676Z" fill="url(#bearGradient)"/>
<path d="M621.413 292.621L624.177 293.08L631.087 296.752L632.008 298.588L629.705 298.129V297.211L626.941 296.752V295.834L624.177 294.916L621.413 293.539V292.621Z" fill="url(#bearGradient)"/>
<path d="M686.83 340.356L689.133 340.815L693.74 345.864L692.819 347.241L690.515 345.405L687.29 341.733L686.83 340.356Z" fill="url(#bearGradient)"/>
<path d="M697.425 736.002L702.493 736.461L703.414 737.838L706.639 738.297L709.403 739.674V740.592L705.257 739.674L699.729 737.838L697.425 736.92V736.002Z" fill="url(#bearGradient)"/>
<path d="M634.773 572.144L635.694 572.603L632.93 574.439L631.087 576.275H624.637L626.02 575.357L634.773 572.144Z" fill="url(#bearGradient)"/>
<path d="M706.179 361.469L708.943 363.305L713.089 368.813L714.01 370.649L712.167 370.19L707.561 364.223V363.305H706.639L706.179 361.469Z" fill="url(#bearGradient)"/>
<path d="M680.38 680.923L682.684 681.382L684.066 684.136L683.605 685.513L682.684 684.136H680.38V685.054H678.077L678.537 682.759L679.459 683.218L680.38 680.923Z" fill="url(#bearGradient)"/>
<path d="M425.161 356.879H427.464V358.256L428.386 357.797H444.049L445.892 358.715H426.082L425.161 356.879Z" fill="url(#bearGradient)"/>
<path d="M706.639 667.613H707.1L708.021 674.957L708.482 676.334L707.561 677.252L705.718 673.121L705.257 671.285L706.179 668.072L706.639 667.613Z" fill="url(#bearGradient)"/>
<path d="M626.48 575.816H627.401L626.48 577.652L621.412 579.488L619.57 579.029L622.334 576.734L626.48 575.816Z" fill="url(#bearGradient)"/>
<path d="M737.505 412.876L738.887 413.335L740.73 416.547L742.112 421.137L740.73 421.596L737.505 413.794V412.876Z" fill="url(#bearGradient)"/>
<path d="M712.167 372.026L714.01 372.944L715.853 375.239L719.078 379.829L718.617 381.664L715.392 377.075L712.167 372.944V372.026Z" fill="url(#bearGradient)"/>
<path d="M394.295 295.375H396.598L394.756 297.211L389.228 299.965L387.845 300.424L388.306 298.588L394.295 295.375Z" fill="url(#bearGradient)"/>
<path d="M550.467 617.125L550.928 618.042L551.849 618.501L550.467 618.96V619.878H549.546L548.624 621.714L547.242 623.55H544.939L547.703 620.337L550.467 617.125Z" fill="url(#bearGradient)"/>
<path d="M422.857 282.523H426.082L425.622 283.9L420.554 285.736H417.79L419.633 284.359L421.015 283.9L421.475 282.982L422.857 282.523Z" fill="url(#bearGradient)"/>
<path d="M718.617 650.63H719.538L719.078 652.925L714.471 659.81H713.549L714.471 657.515L714.931 656.138H715.853V654.761H716.774L717.235 652.466L718.617 650.63Z" fill="url(#bearGradient)"/>
<path d="M614.042 288.49L617.266 289.408L621.413 291.703L622.334 292.621L620.491 293.08L613.12 289.408H614.042V288.49Z" fill="url(#bearGradient)"/>
<path d="M681.302 669.908H682.684L683.144 672.662L680.38 675.875L678.998 676.334L677.616 674.498H679.459L679.92 673.121H681.302L680.841 670.367L681.302 669.908Z" fill="url(#bearGradient)"/>
<path d="M456.027 272.426H458.33L458.791 274.262L455.566 275.18H451.42L452.341 273.803L456.027 273.344V272.426Z" fill="url(#bearGradient)"/>
<path d="M731.056 399.106L733.359 401.401L736.123 406.909L735.662 408.745L732.898 404.155L731.056 400.483V399.106Z" fill="url(#bearGradient)"/>
<path d="M560.141 271.967H565.209L567.973 272.885V273.803L569.355 274.262H566.13L560.141 272.885V271.967Z" fill="url(#bearGradient)"/>
<path d="M641.683 310.522H643.986L644.908 312.358V314.194L643.065 314.653L641.683 313.735V310.522Z" fill="url(#bearGradient)"/>
<path d="M627.862 733.248H630.626L628.784 734.625L624.637 736.92H622.795V736.002L624.637 735.543V734.625L627.862 733.248Z" fill="url(#bearGradient)"/>
<path d="M572.58 274.721L577.187 275.18L580.872 276.557L581.794 277.475L575.344 276.557L572.58 275.18V274.721Z" fill="url(#bearGradient)"/>
<path d="M540.332 630.435H541.253L540.332 632.73L538.029 636.861L536.186 637.32L537.107 635.025L539.871 630.894L540.332 630.435Z" fill="url(#bearGradient)"/>
<path d="M594.232 281.147L597.457 281.606L600.682 282.982V283.9L596.996 283.441L593.771 282.065L594.232 281.147Z" fill="url(#bearGradient)"/>
<path d="M562.906 606.568H563.827L562.906 608.404L561.063 610.699L559.22 611.617L556.917 614.37L554.613 615.288L557.377 612.076L562.445 607.486L562.906 606.568Z" fill="url(#bearGradient)"/>
<path d="M431.61 279.311L432.993 279.77L432.071 280.229L433.914 281.147L429.768 282.064L429.307 282.523H426.543L427.464 281.147H428.846V280.229L431.61 279.311Z" fill="url(#bearGradient)"/>
<path d="M407.194 288.949L408.116 289.408L406.734 290.326L407.194 291.244L402.587 293.08L400.745 293.539L403.048 290.785L407.194 288.949Z" fill="url(#bearGradient)"/>
<path d="M567.973 272.885L571.198 273.344L575.344 274.262V274.721L573.041 275.18L571.659 275.639L567.512 274.721L567.973 272.885Z" fill="url(#bearGradient)"/>
<path d="M648.593 720.855H649.975L649.054 722.691L643.986 725.445L644.447 723.609L645.829 723.15V722.232L648.132 721.314L648.593 720.855Z" fill="url(#bearGradient)"/>
<path d="M410.88 287.572L412.262 288.031L412.722 288.949L407.655 290.785L406.273 290.326L409.037 288.031L410.88 287.572Z" fill="url(#bearGradient)"/>
<path d="M454.184 272.885L456.027 273.344L451.881 274.721L453.723 275.639L447.274 277.016L447.734 276.098L450.499 275.639V274.721L448.656 274.262L454.184 272.885Z" fill="url(#bearGradient)"/>
<path d="M708.482 670.367L709.403 671.285L711.246 677.711V679.088H710.325L708.021 672.662L708.482 670.367Z" fill="url(#bearGradient)"/>
<path d="M585.019 277.934L592.39 279.77L593.772 280.688V281.606L588.704 280.229L585.019 278.852V277.934Z" fill="url(#bearGradient)"/>
<path d="M446.813 274.721H450.499V275.639L447.274 277.016H444.049L445.892 275.18L446.813 274.721Z" fill="url(#bearGradient)"/>
<path d="M664.717 554.243L665.638 554.702L664.256 556.538H663.335V558.374L658.728 560.21L657.807 559.751L662.874 556.079L664.717 554.243Z" fill="url(#bearGradient)"/>
<path d="M702.493 358.256L706.639 362.387V363.305H707.561L708.943 365.141L708.482 366.059L707.1 364.682V363.764L705.257 363.305L704.797 361.469H703.875L702.493 359.174V358.256Z" fill="url(#bearGradient)"/>
<path d="M662.413 318.324L664.717 318.783L667.481 321.078L667.02 322.455L665.178 321.537L662.413 319.242V318.324Z" fill="url(#bearGradient)"/>
<path d="M604.367 582.701H607.592L606.21 583.159V584.077L603.446 584.995H600.682V584.077L604.367 582.701Z" fill="url(#bearGradient)"/>
<path d="M649.975 565.259L650.896 565.718L649.514 566.177L648.593 568.013L646.75 568.472L646.29 569.39L644.908 568.931L646.29 568.472L646.75 566.636L649.975 565.259Z" fill="url(#bearGradient)"/>
<path d="M386.924 299.965V301.342L383.239 303.637H381.857L382.317 301.801L386.924 299.965Z" fill="url(#bearGradient)"/>
<path d="M741.651 606.568L742.573 607.027L742.112 609.781L740.269 613.911L739.348 612.535L741.651 606.568Z" fill="url(#bearGradient)"/>
<path d="M566.13 602.896L567.052 603.355L565.67 606.109L561.063 607.486L563.366 605.191L566.13 602.896Z" fill="url(#bearGradient)"/>
<path d="M578.108 595.093L579.03 595.552L574.883 599.683H573.962V598.765L573.041 598.306L578.108 595.093Z" fill="url(#bearGradient)"/>
<path d="M600.682 282.982L603.906 283.9L602.985 284.359H601.603L606.671 286.654L605.289 287.113L598.839 284.359L600.682 283.9V282.982Z" fill="url(#bearGradient)"/>
<path d="M726.909 637.779L727.37 639.156L724.606 643.746L723.685 644.205L724.145 641.451L725.067 640.074H725.988V638.238L726.909 637.779Z" fill="url(#bearGradient)"/>
<path d="M588.704 589.126L589.625 589.585V590.503L591.007 590.962L587.783 592.339L585.479 591.421L587.783 589.585L588.704 589.126Z" fill="url(#bearGradient)"/>
<path d="M752.708 453.266L753.629 454.643L754.55 458.315L754.09 460.151L753.168 459.692L752.247 457.397L752.708 453.266Z" fill="url(#bearGradient)"/>
<path d="M369.879 310.063L370.8 310.522L371.261 311.44L367.115 314.194L366.193 313.735L366.654 312.358L369.879 310.063Z" fill="url(#bearGradient)"/>
<path d="M643.065 724.527H643.986L643.065 726.363L639.84 728.199L638.458 727.74L640.301 725.904L643.065 724.527Z" fill="url(#bearGradient)"/>
<path d="M690.976 702.496H691.437V705.709L688.672 706.168L689.133 703.873L690.976 702.496Z" fill="url(#bearGradient)"/>
<path d="M544.478 624.009L544.939 624.927L543.096 629.058L541.253 629.976L541.714 627.681L544.478 624.009Z" fill="url(#bearGradient)"/>
<path d="M544.939 623.55H546.321V625.845L543.557 629.058L543.096 627.681L544.939 623.55Z" fill="url(#bearGradient)"/>
<path d="M695.122 509.263H695.583L696.965 513.853L694.201 513.394L693.74 515.23L693.279 514.312L695.122 509.263Z" fill="url(#bearGradient)"/>
<path d="M702.954 357.797L704.797 358.256L707.561 361.469L707.1 362.387L704.336 360.551L702.954 358.715V357.797Z" fill="url(#bearGradient)"/>
<path d="M552.31 270.59L558.759 271.049V272.426L552.31 271.508V270.59Z" fill="url(#bearGradient)"/>
<path d="M718.156 700.66L719.078 702.037L719.999 704.332V707.086H719.078L717.696 703.414L718.156 700.66Z" fill="url(#bearGradient)"/>
<path d="M741.191 601.978L743.033 602.896L742.112 605.191H740.269L740.73 602.437L741.191 601.978Z" fill="url(#bearGradient)"/>
<path d="M708.021 677.252L709.864 679.088V681.842L708.943 682.3L707.561 678.629L708.021 677.252Z" fill="url(#bearGradient)"/>
<path d="M650.436 435.825L654.582 436.284L655.043 437.661L657.346 438.12L657.807 439.038L653.2 437.661L650.436 436.284V435.825Z" fill="url(#bearGradient)"/>
<path d="M292.945 396.352H293.866L293.405 398.647L292.023 401.401H291.102L291.562 398.647L292.945 396.352Z" fill="url(#bearGradient)"/>
<path d="M365.272 313.276L366.654 313.735L364.351 316.029L362.508 316.947V315.57L365.272 313.276Z" fill="url(#bearGradient)"/>
<path d="M622.334 293.998L625.098 294.916L626.941 295.834V296.752L629.705 297.211V298.129L627.401 297.67L623.716 295.834V294.916L622.334 294.457V293.998Z" fill="url(#bearGradient)"/>
<path d="M709.403 682.301L711.707 684.595V687.349L710.785 688.267L709.403 683.677V682.301Z" fill="url(#bearGradient)"/>
<path d="M711.707 660.728H712.628L712.167 663.023L709.864 666.236L709.403 664.4L709.864 663.482H710.785L711.246 661.646L711.707 660.728Z" fill="url(#bearGradient)"/>
<path d="M680.38 539.097L681.302 540.474L680.841 542.769L678.998 544.146L679.459 539.556L680.38 539.097Z" fill="url(#bearGradient)"/>
<path d="M374.486 306.85L375.407 307.309L373.564 308.227L374.025 309.604L371.721 310.981L370.339 310.522L372.643 308.227L374.486 306.85Z" fill="url(#bearGradient)"/>
<path d="M587.783 279.77L592.389 280.688L594.693 282.524L590.547 281.606L587.783 280.229V279.77ZM593.311 280.229L595.153 281.147L593.771 281.606L593.311 280.229Z" fill="url(#bearGradient)"/>
<path d="M734.28 623.091H735.202L734.741 625.386L732.898 629.058H732.438V626.304L732.898 625.386H733.82L734.28 623.091Z" fill="url(#bearGradient)"/>
<path d="M675.313 544.146L675.773 545.064L672.548 548.735L669.784 550.571L670.245 549.194L673.009 546.9L675.313 544.146Z" fill="url(#bearGradient)"/>
<path d="M567.052 602.437H569.816L567.973 604.732L565.67 605.65L567.052 602.437Z" fill="url(#bearGradient)"/>
<path d="M326.114 349.077H327.035L326.574 351.371L325.192 352.748H324.271L324.732 350.453L326.114 349.077Z" fill="url(#bearGradient)"/>
<path d="M704.336 738.297H706.639L709.403 739.674V740.592L705.257 739.674L704.336 738.297Z" fill="url(#bearGradient)"/>
<path d="M721.381 711.676L722.763 712.135L723.224 714.888L722.302 716.265L720.92 713.511L721.381 711.676Z" fill="url(#bearGradient)"/>
<path d="M679.92 580.865H680.841L681.302 582.241L678.998 583.159L677.155 582.7L677.616 581.323L679.92 580.865Z" fill="url(#bearGradient)"/>
<path d="M724.145 723.15L725.067 724.986L725.988 727.281L725.527 728.658L724.145 726.822L723.224 724.068L724.145 723.15Z" fill="url(#bearGradient)"/>
<path d="M722.763 644.664L723.224 646.04L720.92 650.171H719.999L720.46 647.417L722.302 645.581L722.763 644.664Z" fill="url(#bearGradient)"/>
<path d="M553.692 613.912V615.289L553.231 617.124L552.31 618.042H550.928L551.388 616.206L553.692 613.912Z" fill="url(#bearGradient)"/>
<path d="M677.616 541.851L678.537 542.31L677.155 545.064L675.773 545.523V546.441L674.852 545.982L676.234 543.228L677.616 541.851Z" fill="url(#bearGradient)"/>
</svg>
